<?xml version="1.0" encoding="UTF-8"?> <svg xmlns="http://www.w3.org/2000/svg" width="2001" height="1477" viewBox="0 0 2001 1477" fill="none"> <path fill-rule="evenodd" clip-rule="evenodd" d="M982.363 168.452C1129.54 183.777 1273.67 206.314 1393.28 265.448C1511.96 324.12 1590.93 407.322 1648.77 497.908C1711.71 596.479 1797.53 706.11 1738.21 805.671C1679.33 904.484 1479.12 917.164 1357.8 986.252C1219.96 1064.74 1161.05 1215.47 982.363 1236.09C802.605 1256.85 652.944 1150.35 498.749 1085.42C332.226 1015.29 87.0108 972.686 50.6733 843.721C13.7158 712.557 258.31 625.361 334.33 501.883C401.356 393.016 326.321 240.845 466.131 168.909C605.719 97.0868 808.086 150.306 982.363 168.452Z" fill="#3C5C97"></path> <path fill-rule="evenodd" clip-rule="evenodd" d="M1126.5 298.584C1339.11 291.464 1545.85 343.406 1707.41 414.35C1860.66 481.642 1959 577.184 1992.75 678.953C2023.5 771.651 1950.5 860.717 1884.59 948.502C1822.28 1031.48 1745.13 1108.38 1622.84 1171.61C1479.64 1245.64 1329.93 1346.41 1126.5 1340.44C922.696 1334.45 824.708 1211.62 669.947 1143.64C532.413 1083.21 329.509 1052.37 271.115 964.648C212.538 876.653 316.722 786.05 373.086 697.679C429.401 609.386 472.219 518.337 598.416 451.488C742.386 375.225 919.519 305.515 1126.5 298.584Z" stroke="url(#paint0_linear)"></path> <path opacity="0.8" fill-rule="evenodd" clip-rule="evenodd" d="M1126.5 265.485C1339.11 258.309 1545.85 310.664 1707.41 382.17C1860.66 449.996 1959 546.297 1992.75 648.874C2023.5 742.307 1950.5 832.08 1884.59 920.562C1822.28 1004.2 1745.13 1081.71 1622.84 1145.44C1479.64 1220.06 1329.93 1321.63 1126.5 1315.61C922.696 1309.58 824.708 1185.77 669.947 1117.24C532.413 1056.34 329.509 1025.25 271.115 936.836C212.538 848.142 316.722 756.82 373.086 667.748C429.401 578.754 472.219 486.982 598.416 419.603C742.386 342.735 919.519 272.472 1126.5 265.485Z" stroke="url(#paint1_linear)"></path> <path opacity="0.5" fill-rule="evenodd" clip-rule="evenodd" d="M1126.5 243.411C1339.11 236.291 1545.85 288.234 1707.41 359.177C1860.66 426.469 1959 522.011 1992.75 623.781C2023.5 716.478 1950.5 805.545 1884.59 893.33C1822.28 976.309 1745.13 1053.21 1622.84 1116.44C1479.64 1190.47 1329.93 1291.24 1126.5 1285.26C922.696 1279.28 824.708 1156.45 669.947 1088.46C532.413 1028.04 329.509 997.198 271.115 909.476C212.538 821.48 316.722 730.877 373.086 642.506C429.401 554.213 472.219 463.164 598.416 396.315C742.386 320.052 919.519 250.342 1126.5 243.411Z" stroke="url(#paint2_linear)"></path> <path opacity="0.2" fill-rule="evenodd" clip-rule="evenodd" d="M1126.5 213.066C1339.11 205.946 1545.85 257.889 1707.41 328.832C1860.66 396.124 1959 491.667 1992.75 593.436C2023.5 686.133 1950.5 775.2 1884.59 862.985C1822.28 945.964 1745.13 1022.87 1622.84 1086.09C1479.64 1160.13 1329.93 1260.89 1126.5 1254.92C922.696 1248.94 824.708 1126.11 669.947 1058.12C532.413 997.696 329.509 966.854 271.115 879.131C212.538 791.135 316.722 700.533 373.086 612.161C429.401 523.868 472.219 432.819 598.416 365.97C742.386 289.707 919.519 219.998 1126.5 213.066Z" stroke="url(#paint3_linear)"></path> <path fill-rule="evenodd" clip-rule="evenodd" d="M1126.5 326.17C1339.11 319.05 1545.85 370.992 1707.41 441.936C1860.66 509.228 1959 604.77 1992.75 706.539C2023.5 799.237 1950.5 888.304 1884.59 976.088C1822.28 1059.07 1745.13 1135.97 1622.84 1199.19C1479.64 1273.23 1329.93 1373.99 1126.5 1368.02C922.696 1362.04 824.708 1239.21 669.947 1171.22C532.413 1110.8 329.509 1079.96 271.115 992.234C212.538 904.239 316.722 813.636 373.086 725.265C429.401 636.972 472.219 545.923 598.416 479.074C742.386 402.811 919.519 333.101 1126.5 326.17Z" fill="#5977AE" fill-opacity="0.8"></path> <path d="M572.223 1200.33H607.451C616.813 1200.32 626.006 1197.84 634.098 1193.13C642.19 1188.43 648.891 1181.66 653.521 1173.52C658.151 1165.39 660.545 1156.17 660.46 1146.81C660.374 1137.45 657.812 1128.28 653.034 1120.23L615.138 1056.49C613.902 1054.41 613.238 1052.05 613.214 1049.63C613.191 1047.21 613.807 1044.83 615.002 1042.73C616.196 1040.63 617.926 1038.88 620.015 1037.67C622.104 1036.45 624.477 1035.81 626.894 1035.81V1029.34C623.334 1029.34 619.838 1030.28 616.76 1032.07C613.683 1033.86 611.135 1036.44 609.375 1039.53C607.616 1042.63 606.707 1046.13 606.742 1049.69C606.777 1053.25 607.754 1056.74 609.574 1059.8L647.47 1123.53C651.675 1130.6 653.933 1138.66 654.013 1146.88C654.093 1155.11 651.993 1163.2 647.927 1170.35C643.86 1177.5 637.973 1183.45 630.863 1187.58C623.753 1191.71 615.675 1193.89 607.451 1193.89H572.223V1200.33Z" fill="black"></path> <path d="M448.485 1227.48H621.184L596.641 1210.94H423.942L448.485 1227.48Z" fill="#E6E6E6"></path> <path d="M448.485 1227.48H621.184V1260.55H448.485V1227.48Z" fill="#B3B3B3"></path> <path d="M448.486 1227.48L423.943 1210.94V1244.01L448.486 1260.55V1227.48Z" fill="#CCCCCC"></path> <path d="M533.986 1174.98H569.451C575.756 1174.98 580.867 1180.09 580.867 1186.4V1207.79C580.867 1214.09 575.756 1219.2 569.451 1219.2H533.986C527.681 1219.2 522.569 1214.09 522.569 1207.79V1186.4C522.569 1180.09 527.681 1174.98 533.986 1174.98Z" fill="#1A1A1A"></path> <path d="M453.308 1221.89L439.862 1212.76H451.206L464.714 1221.89H453.308Z" fill="#C1272D"></path> <path d="M293.469 1234.62H436.215V1241.27H293.469V1234.62Z" fill="black"></path> <path d="M101.266 1213.27H364.348C375.825 1213.27 386.832 1217.83 394.948 1225.94C403.063 1234.06 407.623 1245.07 407.623 1256.54V1268C407.623 1268.74 407.623 1269.49 407.623 1270.23H1432.27C1434.44 1263.94 1438.52 1258.48 1443.93 1254.62C1449.35 1250.76 1455.84 1248.69 1462.49 1248.69H1937.18C1941.39 1248.69 1945.55 1249.52 1949.44 1251.13C1953.33 1252.73 1956.86 1255.09 1959.84 1258.07C1962.81 1261.04 1965.17 1264.58 1966.78 1268.46C1968.39 1272.35 1969.22 1276.52 1969.21 1280.73V1289.21C1969.21 1297.7 1965.84 1305.84 1959.84 1311.84C1953.83 1317.85 1945.69 1321.22 1937.2 1321.22H1623.71V1325C1623.71 1336.48 1619.15 1347.49 1611.04 1355.6C1602.92 1363.72 1591.92 1368.28 1580.44 1368.28H149.549C138.072 1368.28 127.064 1363.72 118.949 1355.6C110.833 1347.49 106.274 1336.48 106.274 1325V1313.55C106.274 1312.8 106.274 1312.06 106.336 1311.32H101.287C89.8097 1311.32 78.8025 1306.76 70.6869 1298.64C62.5712 1290.53 58.0118 1279.52 58.0118 1268.04V1256.59C58.0065 1250.9 59.1211 1245.27 61.2921 1240.02C63.4631 1234.76 66.6482 1229.99 70.6649 1225.97C74.6818 1221.94 79.4517 1218.75 84.7024 1216.57C89.953 1214.39 95.5817 1213.27 101.266 1213.27Z" fill="#6FA4E9"></path> <path d="M1058.9 774.027C1140.6 769.339 1154.72 721.912 1154.72 721.912L1110.97 713.968L1098.23 659.153L1095.52 647.479L1011.53 667.447L1017.71 701.748L1019.55 712.051L981.985 719.099C981.985 719.099 977.204 778.757 1058.9 774.027Z" fill="#F5B99E"></path> <path d="M816.644 892.848L829.719 897.104L907.491 922.399C907.491 922.399 923.039 946.468 922.174 982.067C921.02 1028.94 924.719 1118.66 911.715 1168.56C906.811 1187.4 961.018 1211.75 961.018 1211.75C961.018 1211.75 1058.28 1242.67 1197.64 1193.05C1197.64 1193.05 1219.82 1176.32 1216.66 1164.69C1213.5 1153.05 1217.1 1065.04 1211.72 1003.77C1206.35 942.491 1208.39 909.86 1208.39 909.86L1224.06 934.763L1251.05 928.581L1300.69 917.134L1322.58 912.095C1322.58 912.095 1281.8 768.876 1245.53 746.043C1220.05 729.959 1188.11 722.973 1146.06 717.729C1138.95 732.606 1127.84 745.209 1113.97 754.124C1100.09 763.04 1084.01 767.914 1067.53 768.202C1051.04 768.49 1034.8 764.179 1020.63 755.754C1006.45 747.328 994.906 735.121 987.282 720.5C986.169 718.44 985.149 716.214 984.191 713.999C981.522 714.102 955.104 723.653 952.528 724.529C886.595 747.073 825.083 855.879 816.644 892.848Z" fill="#FFE159"></path> <path opacity="0.1" d="M1201.16 1164.69C1201.16 1164.69 1201.16 933.558 1194.11 941.368C1187.07 949.178 1162.85 968.477 1068.27 967.632C973.68 966.787 928.962 947.674 928.962 947.674C928.962 947.674 940.368 1116.8 922.172 1164.69H1201.16Z" fill="url(#paint4_linear)"></path> <path d="M715.802 1268.94H1388.74C1400.25 1268.94 1409.57 1278.27 1409.57 1289.77V1320.6C1409.57 1332.11 1400.25 1341.43 1388.74 1341.43H715.802C704.296 1341.43 694.968 1332.11 694.968 1320.6V1289.77C694.968 1278.27 704.296 1268.94 715.802 1268.94Z" fill="#337BE8"></path> <path d="M1310.96 1145.01C1310.96 1145.01 1122.99 1165.39 1046.93 1165.39C970.869 1165.39 761.716 1144.96 761.716 1144.96L1044.14 1241.2L1310.96 1145.01Z" fill="#3C3476"></path> <path d="M1240.66 1322.45C1240.66 1322.45 1146.29 1339.34 1111.07 1322.45C1075.85 1305.55 783.518 1277.6 730.763 1221.67C673.063 1160.46 737.811 1118.21 871.624 1164.69C1005.44 1211.17 1101.21 1281.59 1149.1 1280.19C1196.99 1278.79 1260.38 1222.49 1305.45 1243.56C1350.51 1264.63 1320.94 1314.97 1240.66 1322.45Z" fill="#E5AD9A"></path> <path d="M375.172 1340.69H399.394L450.852 1073.45L455.172 1051.03H430.929L426.62 1073.45L375.172 1340.69Z" fill="#BFE1FF"></path> <path d="M496.551 1340.69H520.78L572.231 1073.45L576.551 1051.03H552.312L548.002 1073.45L496.551 1340.69Z" fill="#BFE1FF"></path> <path d="M847.627 1322.45C847.627 1322.45 941.997 1339.34 977.204 1322.45C1012.41 1305.55 1304.76 1277.6 1357.52 1221.67C1415.22 1160.46 1350.46 1118.21 1216.66 1164.69C1082.86 1211.17 987.065 1281.59 939.174 1280.19C891.283 1278.79 827.895 1222.49 782.838 1243.56C737.78 1264.63 767.331 1314.97 847.627 1322.45Z" fill="#F5B99E"></path> <path d="M970.879 1024.55C970.879 1038.62 1005.4 1042.85 1030.74 1042.15C1049.36 1041.63 1051.28 1027.45 1059.34 1023.6H1059.42C1059.5 1023.55 1059.59 1023.52 1059.68 1023.49C1059.82 1023.42 1059.97 1023.35 1060.13 1023.3C1060.42 1023.2 1060.78 1023.06 1061.16 1022.95C1063.8 1022.3 1067.05 1022.66 1071.53 1024.61C1092.68 1033.77 1107.46 1036.57 1120.13 1030.23C1132.79 1023.88 1216.62 1053.48 1254.66 1050.2C1292.7 1046.93 1313.8 1033.06 1323.69 1022.49C1325.57 1020.49 1326.41 1015.36 1326.57 1008.34C1327.01 988.084 1321.62 952.145 1318.07 930.909C1316.35 920.667 1315.07 913.846 1315.07 913.846L1230.17 933.423L1233.69 947.735L1241.94 981.335C1241.94 981.335 1110.96 983.746 1061.68 976.719C1012.41 969.692 970.879 1010.45 970.879 1024.55Z" fill="#F5B99E"></path> <path d="M1230.19 933.362L1233.71 947.674C1252.13 943.995 1291.09 936.216 1318.09 930.848C1316.37 920.606 1315.08 913.785 1315.08 913.785L1230.19 933.362Z" fill="#E5AD9A"></path> <path d="M376.351 1050.14H1468V1095.67H376.351V1050.14Z" fill="#337BE8"></path> <path opacity="0.1" d="M1141.06 726.744C1156.45 727.27 1202.88 730.454 1233.08 749.649C1265.62 770.256 1294.58 890.283 1300.69 917.103L1322.58 912.095C1322.58 912.095 1281.8 768.876 1245.53 746.043C1220.05 729.959 1188.11 722.973 1146.06 717.729C1144.57 720.828 1142.9 723.838 1141.06 726.744Z" fill="white"></path> <path opacity="0.1" d="M816.644 892.848L829.719 897.104C839.332 877.62 884.782 787.309 915.713 757.624C942.945 731.494 974.794 722.963 987.292 720.531C986.179 718.47 985.159 716.245 984.201 714.03C981.532 714.133 955.114 723.684 952.538 724.56C886.595 747.073 825.083 855.879 816.644 892.848Z" fill="white"></path> <path d="M1006.91 724.209C1018.35 752.565 1010.81 788.699 1010.73 789.05L1013.64 789.678C1013.97 788.163 1021.44 752.297 1009.66 723.096C1002.95 706.466 997.749 691.722 994.545 682.222C993.278 681.676 992.041 681.089 990.825 680.46C993.917 689.754 999.501 705.827 1006.91 724.209Z" fill="white"></path> <path d="M1109.56 732.621L1067.53 748.786L1020.49 739.467L1016.07 702.009L1019.16 702.171C1032.93 702.895 1046.33 697.769 1056.41 687.918C1066.49 678.068 1072.42 664.301 1072.89 649.643L1074.96 584.953L1075.15 579.277C1075.58 573.98 1077.91 569.091 1081.65 565.62C1085.39 562.148 1090.26 560.359 1095.26 560.622C1100.26 560.885 1105 563.179 1108.51 567.031C1112.01 570.884 1114.02 576 1114.1 581.325C1113.92 586.811 1111.7 591.963 1107.93 595.654C1104.16 599.345 1099.15 601.275 1094 601.022L1092.41 650.07L1095.65 650.244C1097.06 650.309 1098.47 650.276 1099.87 650.145L1109.61 732.605L1109.56 732.621Z" fill="#F5B99E"></path> <path d="M1092.35 650.085L1093.94 601.037C1099.1 601.291 1104.11 599.361 1107.88 595.67C1111.64 591.978 1113.86 586.827 1114.05 581.34C1113.96 576.016 1111.96 570.899 1108.45 567.047C1104.95 563.195 1100.21 560.9 1095.21 560.638C1090.21 560.375 1085.34 562.164 1081.59 565.635C1077.85 569.107 1075.53 573.995 1075.1 579.293L1074.91 584.969L1072.82 649.661C1072.34 664.319 1066.41 678.086 1056.34 687.936C1046.26 697.786 1032.86 702.913 1019.09 702.189L1015.99 702.026L980.888 700.192L967.521 699.488C964.005 699.289 960.553 698.335 957.372 696.686C954.19 695.036 951.345 692.723 949.007 689.887C946.669 687.051 944.886 683.75 943.766 680.181C942.646 676.613 942.211 672.851 942.487 669.122L944.706 641.229L945.201 634.888L947.778 601.329L1033.11 605.853C1038.81 606.153 1044.35 604.049 1048.54 599.997C1052.73 595.945 1055.22 590.273 1055.48 584.214L1058.15 501.563C1052.87 507.244 1046.51 511.671 1039.49 514.562C1032.46 517.452 1024.93 518.742 1017.37 518.349L957.377 515.088C954.982 521.732 953.482 528.717 952.921 535.836L951.533 553.6C943.187 551.57 935.543 546.996 929.542 540.44C923.541 533.884 919.445 525.632 917.756 516.699C916.068 507.765 916.861 498.541 920.039 490.159C923.217 481.778 928.64 474.605 935.643 469.524C936.473 461.081 939.725 453.153 944.957 446.813C950.188 440.473 957.148 436.028 964.893 434.079C967.729 433.152 970.702 432.753 973.681 432.9L975.666 433.005L1007.18 434.665L1010.42 434.84C1017.09 435.18 1023.41 438.254 1028.06 443.416C1031.23 439.476 1035.4 436.59 1040.08 435.094C1044.76 433.598 1049.76 433.552 1054.51 434.962C1059.26 436.371 1063.55 439.179 1066.89 443.059C1070.24 446.94 1072.49 451.733 1073.4 456.884C1089.83 458.849 1105.04 467.395 1115.92 480.783C1126.81 494.171 1132.56 511.396 1132 528.953L1130.36 579.543L1129.13 617.38C1128.79 626.527 1125.07 635.108 1118.79 641.263C1112.5 647.418 1104.15 650.652 1095.55 650.266L1092.35 650.085ZM971.707 625.354C971.561 628.131 971.936 630.92 972.812 633.558C973.688 636.195 975.046 638.628 976.808 640.714C978.57 642.799 980.699 644.496 983.072 645.705C985.445 646.913 988.013 647.61 990.626 647.752C993.24 647.895 995.846 647.482 998.292 646.537C1000.74 645.591 1002.98 644.133 1004.87 642.247C1006.77 640.362 1008.29 638.086 1009.34 635.554C1010.39 633.022 1010.96 630.284 1011 627.501L971.707 625.354Z" fill="#3C3476"></path> <path d="M952.926 535.878C953.487 528.758 954.987 521.774 957.382 515.129L1017.37 518.29C1024.93 518.683 1032.47 517.393 1039.49 514.503C1046.51 511.613 1052.87 507.186 1058.15 501.505L1055.48 584.156C1055.24 590.227 1052.75 595.914 1048.56 599.979C1044.37 604.043 1038.82 606.155 1033.11 605.855L947.819 601.356L951.532 553.672L952.926 535.878Z" fill="#F5B99E"></path> <path d="M990.633 647.341C985.422 647.054 980.501 644.577 976.951 640.454C973.401 636.331 971.513 630.901 971.702 625.356L1011 627.503C1010.9 630.249 1010.3 632.941 1009.23 635.424C1008.16 637.907 1006.63 640.134 1004.74 641.976C1002.85 643.818 1000.63 645.24 998.208 646.16C995.788 647.081 993.214 647.482 990.633 647.341Z" fill="white"></path> <path d="M890.515 1018.06C890.577 1017.73 897.233 984.215 913.904 941.434C929.277 902.003 956.551 846.405 999.208 805.427C1040.57 765.738 1063.33 712.695 1075.13 675.149C1087.92 634.511 1090.98 602.807 1091.01 602.488L1088.07 602.22C1088.07 602.529 1084.97 633.986 1072.28 674.345C1060.58 711.52 1038.04 764.069 997.157 803.305C954.088 844.643 926.598 900.673 911.122 940.404C894.359 983.422 887.672 1017.15 887.61 1017.49L890.515 1018.06Z" fill="white"></path> <path d="M535.829 1015.49H543.835C552.527 1015.48 560.86 1012.02 567.006 1005.88C573.152 999.731 576.61 991.398 576.621 982.706V981.48C576.61 972.788 573.152 964.455 567.006 958.309C560.86 952.162 552.527 948.705 543.835 948.694V955.175C550.809 955.183 557.495 957.957 562.427 962.888C567.358 967.82 570.132 974.506 570.14 981.48V982.706C570.132 989.68 567.358 996.366 562.427 1001.3C557.495 1006.23 550.809 1009 543.835 1009.01H535.829V1015.49Z" fill="#F0879F"></path> <path d="M452.67 930.127H545.258C550.533 930.127 553.614 936.309 552.213 943.696L532.894 1045.01C532.525 1046.49 531.674 1047.79 530.475 1048.73C529.276 1049.66 527.798 1050.17 526.279 1050.16H471.598C470.078 1050.17 468.601 1049.66 467.402 1048.73C466.203 1047.79 465.351 1046.49 464.983 1045.01L445.674 943.676C444.283 936.36 447.374 930.127 452.67 930.127Z" fill="#F0879F"></path> <path opacity="0.2" d="M543.857 954.34L528.669 1036C528.298 1038.02 527.229 1039.85 525.647 1041.17C524.066 1042.49 522.073 1043.21 520.014 1043.21C518.781 1043.21 517.563 1042.95 516.437 1042.45C515.311 1041.95 514.303 1041.21 513.478 1040.3C512.654 1039.38 512.03 1038.3 511.649 1037.13C511.268 1035.96 511.138 1034.72 511.266 1033.49L519.808 951.847C520.037 949.683 521.058 947.681 522.675 946.226C524.292 944.771 526.391 943.965 528.566 943.965H535.212C536.5 943.965 537.773 944.248 538.94 944.794C540.107 945.341 541.14 946.138 541.964 947.128C542.789 948.118 543.386 949.277 543.713 950.523C544.04 951.77 544.089 953.073 543.857 954.34Z" fill="white"></path> <path d="M237.5 998.621C198.172 779.947 253.88 615.173 253.88 615.173C324.181 819.312 237.5 998.621 237.5 998.621Z" fill="#D6E8FF"></path> <path d="M339.31 722.759C328.153 945.232 234.519 1089.66 234.519 1089.66C211.397 872.788 339.31 722.759 339.31 722.759Z" fill="#BFDBFF"></path> <path d="M140.689 689.655C151.855 912.145 245.481 1056.55 245.481 1056.55C268.6 839.695 140.689 689.655 140.689 689.655Z" fill="#CBE1FF"></path> <path d="M231.724 1115.26C234.629 1118.7 237.615 1122.12 240.682 1125.52C244.201 1121.14 248.417 1115.73 253.159 1109.3C284.311 1067 338.161 980.786 366.896 857.931C366.896 857.931 336.392 882.594 303.966 929.612C278.862 966.032 259.608 1005.53 246.789 1046.9C245.94 1049.62 245.131 1052.36 244.332 1055.12C243.534 1057.89 242.755 1060.71 242.007 1063.55C239.985 1071.23 238.138 1079.11 236.466 1087.19C234.606 1096.29 233.025 1105.65 231.724 1115.26Z" fill="#A8CEFF"></path> <path d="M229.183 1115.27C232.144 1118.71 235.188 1122.12 238.315 1125.52C241.902 1121.14 246.2 1115.74 251.034 1109.31C248.973 1099.72 246.344 1088.4 242.953 1075.65C241.929 1071.76 240.833 1067.74 239.665 1063.6C237.274 1055.14 234.57 1046.19 231.553 1036.75L231.471 1036.49C217.518 993.06 199.947 950.62 178.903 909.523C158.51 869.587 134.666 831.125 107.587 794.483C107.587 794.483 105.907 972.648 229.183 1115.27Z" fill="#D6E8FF"></path> <path d="M144.799 1091.59L148.395 1112.89L168.467 1232.1L175.504 1273.92H296.932L310.409 1193.85L324.04 1112.89L327.626 1091.59H144.799Z" fill="#F9CE6F"></path> <path d="M121.565 1048.99H350.86V1091.59H121.565V1048.99Z" fill="#FFDB8A"></path> <path opacity="0.1" d="M144.809 1091.59L148.395 1112.89H324.03L327.615 1091.59H144.809Z" fill="black"></path> <path opacity="0.1" d="M168.466 1232.1L175.493 1273.92H296.941L310.418 1193.85C279.559 1211.04 231.616 1230.09 168.466 1232.1Z" fill="black"></path> <path d="M1061.21 1022.89C1063.85 1022.24 1067.1 1022.6 1071.58 1024.55C1092.73 1033.71 1107.51 1036.51 1120.18 1030.16C1132.84 1023.82 1216.67 1053.42 1254.71 1050.14C1292.75 1046.87 1313.85 1033 1323.74 1022.43C1325.62 1020.43 1326.46 1015.3 1326.62 1008.28C1317.61 1017.08 1300.93 1026.53 1271.2 1025.25C1217.1 1022.9 1128.77 1021.98 1124.47 1021.07C1120.18 1020.15 1118.54 1014.29 1115.81 1018.6C1113.08 1022.92 1105.38 1031.58 1086.96 1025.25C1073.23 1020.56 1064.72 1021.88 1061.21 1022.89Z" fill="#E5AD9A"></path> <path d="M536.83 783.692H887.203L957.134 1031.59H606.771L536.83 783.692Z" fill="white"></path> <path d="M729.774 908.757L731.907 906.315L743.015 893.559L761.324 906.315L764.827 908.757L777.861 917.844H767.393L774.028 941.367H761.252L756.543 924.655H747.033L751.752 941.367H738.976L732.34 917.844H721.872L729.774 908.757Z" fill="#3C3476"></path> <path opacity="0.1" d="M940.813 973.731L957.134 1031.59H606.771L571.8 907.634L940.813 973.731Z" fill="black"></path> <path opacity="0.2" d="M549.019 789.091H878.61H883.195L884.544 793.779L951.384 1025.25H947.159L879.98 793.779H551.131L549.019 789.091Z" fill="white"></path> <path d="M606.771 1031.59H957.134V1050.4H606.771V1031.59Z" fill="#B9C6D8"></path> <path d="M957.143 1031.59H1138.49V1050.4H957.143V1031.59Z" fill="#A1B1C9"></path> <path d="M976.793 1039.76H1002.64V1045.75H976.793V1039.76Z" fill="#485B7A"></path> <path d="M1007.95 1039.76H1033.8V1045.75H1007.95V1039.76Z" fill="#485B7A"></path> <path d="M914.363 1038.49H944.944V1045.19H914.363V1038.49Z" fill="#485B7A"></path> <path d="M880.311 1038.49H910.892V1045.19H880.311V1038.49Z" fill="#485B7A"></path> <path d="M846.266 1038.49H876.847V1045.19H846.266V1038.49Z" fill="#485B7A"></path> <path d="M812.223 1038.49H842.804V1045.19H812.223V1038.49Z" fill="#485B7A"></path> <path d="M719.286 1038.49H749.867V1045.19H719.286V1038.49Z" fill="#485B7A"></path> <path d="M685.242 1038.49H715.823V1045.19H685.242V1038.49Z" fill="#485B7A"></path> <path d="M651.199 1038.49H681.78V1045.19H651.199V1038.49Z" fill="#485B7A"></path> <path d="M617.146 1038.49H647.727V1045.19H617.146V1038.49Z" fill="#485B7A"></path> <path d="M1085.22 581.87C1084.97 583.102 1085 584.378 1085.32 585.594C1085.65 586.811 1086.25 587.935 1087.09 588.876C1087.52 589.374 1088.02 589.817 1088.56 590.195L1085.28 606.083L1091.47 607.351L1094.75 591.463C1096.32 591.155 1097.76 590.392 1098.89 589.271C1100.02 588.149 1100.8 586.718 1101.12 585.157C1101.38 584.007 1101.38 582.814 1101.12 581.664C1100.7 579.867 1099.68 578.269 1098.23 577.132C1096.77 575.995 1094.97 575.388 1093.13 575.412C1091.29 575.436 1089.5 576.09 1088.08 577.264C1086.66 578.438 1085.68 580.063 1085.3 581.87H1085.22Z" fill="#E6E6E6"></path> <path opacity="0.05" d="M1087.09 588.876C1087.52 589.374 1088.02 589.817 1088.56 590.195L1085.28 606.083L1091.47 607.351L1094.75 591.463C1096.32 591.155 1097.76 590.392 1098.89 589.271C1100.02 588.149 1100.8 586.718 1101.12 585.157C1101.38 584.007 1101.38 582.814 1101.12 581.664C1098.3 584.157 1093.95 586.857 1087.09 588.876Z" fill="black"></path> <path d="M1642.56 1207.76H1753.03L1727.6 998.862H1667.99L1642.56 1207.76Z" fill="#3C3476"></path> <path d="M1556.46 1201.52H1839.13C1841.28 1201.47 1843.42 1201.84 1845.42 1202.63C1847.42 1203.42 1849.25 1204.59 1850.79 1206.09C1852.33 1207.6 1853.55 1209.39 1854.39 1211.37C1855.22 1213.35 1855.65 1215.48 1855.65 1217.63C1855.65 1219.78 1855.22 1221.91 1854.39 1223.89C1853.55 1225.87 1852.33 1227.67 1850.79 1229.17C1849.25 1230.67 1847.42 1231.85 1845.42 1232.63C1843.42 1233.42 1841.28 1233.8 1839.13 1233.74H1556.46C1552.26 1233.64 1548.27 1231.89 1545.33 1228.88C1542.4 1225.87 1540.75 1221.84 1540.75 1217.63C1540.75 1213.43 1542.4 1209.39 1545.33 1206.38C1548.27 1203.37 1552.26 1201.63 1556.46 1201.52Z" fill="#3B85F6"></path> <path d="M1697.8 661.605C1733.05 661.605 1767.51 672.059 1796.83 691.646C1826.14 711.233 1848.99 739.072 1862.48 771.643C1875.97 804.214 1879.5 840.055 1872.62 874.632C1865.74 909.21 1848.77 940.971 1823.84 965.9C1798.91 990.829 1767.15 1007.81 1732.57 1014.68C1697.99 1021.56 1662.15 1018.03 1629.58 1004.54C1597.01 991.049 1569.17 968.202 1549.58 938.889C1530 909.575 1519.54 875.112 1519.54 839.857C1519.54 792.582 1538.32 747.243 1571.75 713.814C1605.18 680.385 1650.52 661.605 1697.8 661.605ZM1697.8 997.296C1728.94 997.298 1759.38 988.065 1785.27 970.766C1811.17 953.466 1831.35 928.877 1843.27 900.107C1855.19 871.337 1858.31 839.679 1852.23 809.136C1846.16 778.594 1831.16 750.538 1809.14 728.517C1787.12 706.497 1759.07 691.5 1728.53 685.424C1697.98 679.348 1666.33 682.465 1637.56 694.382C1608.78 706.299 1584.19 726.479 1566.89 752.372C1549.59 778.264 1540.36 808.706 1540.36 839.847C1540.36 881.602 1556.95 921.647 1586.47 951.173C1616 980.7 1656.04 997.29 1697.8 997.296Z" fill="#BFE1FF"></path> <path d="M1596.22 792.574C1633.97 782.363 1672.68 806.453 1689.38 818.858C1689.88 812.023 1688.09 805.215 1684.28 799.518C1680.47 793.821 1674.86 789.563 1668.35 787.422C1645.68 779.972 1620.6 765.63 1628.26 739.459C1641.56 693.968 1731.53 688.343 1745.05 738.325C1755.25 775.995 1731.27 814.634 1718.85 831.377C1725.69 831.89 1732.5 830.096 1738.21 826.28C1743.91 822.464 1748.17 816.847 1750.3 810.327C1757.75 787.659 1772.1 762.59 1798.27 770.246C1843.75 783.548 1849.37 873.519 1799.39 887.037C1761.6 897.258 1722.83 873.107 1706.17 860.711C1705.63 867.578 1707.41 874.427 1711.23 880.16C1715.04 885.893 1720.68 890.177 1727.22 892.323C1749.89 899.772 1774.96 914.104 1767.3 940.286C1754 985.766 1664.03 991.392 1650.51 941.409C1640.3 903.667 1664.38 864.956 1676.79 848.265C1669.95 847.755 1663.13 849.551 1657.43 853.366C1651.73 857.181 1647.47 862.796 1645.33 869.315C1637.88 891.983 1623.55 917.051 1597.37 909.396C1551.87 896.084 1546.24 806.113 1596.22 792.574Z" fill="#A6D2F7"></path> <path d="M1697.07 661.605H1698.53V839.847H1697.07V661.605Z" fill="#3B85F6"></path> <path d="M1786.29 685.125L1787.55 685.856L1698.43 840.218L1697.17 839.486L1786.29 685.125Z" fill="#3B85F6"></path> <path d="M1851.8 750.096L1852.52 751.354L1698.16 840.475L1697.44 839.216L1851.8 750.096Z" fill="#3B85F6"></path> <path d="M1697.79 839.125H1876.04V840.578H1697.79V839.125Z" fill="#3B85F6"></path> <path d="M1698.21 839.264L1852.54 928.438L1851.82 929.696L1697.49 840.522L1698.21 839.264Z" fill="#3B85F6"></path> <path d="M1698.44 839.46L1787.53 993.837L1786.27 994.569L1697.17 840.191L1698.44 839.46Z" fill="#3B85F6"></path> <path d="M1697.07 839.847H1698.53V1018.09H1697.07V839.847Z" fill="#3B85F6"></path> <path d="M1697.16 839.491L1698.43 840.222L1609.31 994.584L1608.04 993.853L1697.16 839.491Z" fill="#3B85F6"></path> <path d="M1697.42 839.232L1698.15 840.491L1543.79 929.611L1543.06 928.353L1697.42 839.232Z" fill="#3B85F6"></path> <path d="M1519.56 839.125H1697.8V840.578H1519.56V839.125Z" fill="#3B85F6"></path> <path d="M1543.81 750.058L1698.14 839.232L1697.42 840.49L1543.09 751.316L1543.81 750.058Z" fill="#3B85F6"></path> <path d="M1609.3 685.191L1698.42 839.553L1697.15 840.284L1608.03 685.923L1609.3 685.191Z" fill="#3B85F6"></path> <path d="M1745.58 668.164L1746.97 668.559L1698.53 840.091L1697.13 839.697L1745.58 668.164Z" fill="#3B85F6"></path> <path d="M1825.02 715.063L1826.03 716.104L1698.31 840.435L1697.3 839.394L1825.02 715.063Z" fill="#3B85F6"></path> <path d="M1870.38 795.393L1870.74 796.802L1697.96 840.616L1697.61 839.208L1870.38 795.393Z" fill="#3B85F6"></path> <path d="M1698.03 839.26L1869.59 887.613L1869.19 889.021L1697.63 840.669L1698.03 839.26Z" fill="#3B85F6"></path> <path d="M1698.33 839.33L1822.62 967.092L1821.57 968.105L1697.29 840.343L1698.33 839.33Z" fill="#3B85F6"></path> <path d="M1698.48 839.689L1742.32 1012.45L1740.9 1012.81L1697.06 840.049L1698.48 839.689Z" fill="#3B85F6"></path> <path d="M1697.14 839.713L1698.54 840.108L1650.1 1011.64L1648.7 1011.25L1697.14 839.713Z" fill="#3B85F6"></path> <path d="M1697.3 839.409L1698.31 840.45L1570.6 964.781L1569.58 963.74L1697.3 839.409Z" fill="#3B85F6"></path> <path d="M1697.59 839.212L1697.94 840.62L1525.17 884.434L1524.81 883.026L1697.59 839.212Z" fill="#3B85F6"></path> <path d="M1526.43 790.683L1697.98 839.065L1697.59 840.473L1526.04 792.091L1526.43 790.683Z" fill="#3B85F6"></path> <path d="M1574.02 711.654L1698.31 839.416L1697.26 840.429L1572.98 712.667L1574.02 711.654Z" fill="#3B85F6"></path> <path d="M1654.71 666.853L1698.56 839.618L1697.14 839.978L1653.29 667.213L1654.71 666.853Z" fill="#3B85F6"></path> <path d="M1650.05 851.298C1643.68 824.911 1659.91 798.361 1686.3 791.997C1712.69 785.632 1739.24 801.864 1745.6 828.251C1751.97 854.638 1735.74 881.188 1709.35 887.553C1682.96 893.917 1656.41 877.685 1650.05 851.298Z" fill="#3B85F6"></path> <path d="M1722.02 1025.25L1742.31 1196.24H1727.06L1716.9 1025.25H1722.02Z" fill="white"></path> <path opacity="0.1" d="M1905.82 1246.93L1856.85 1309.44L1669.48 1294.48L1746.13 1238.41L1905.82 1246.93Z" fill="black"></path> <path d="M1900.15 1240.88L1851.18 1303.39L1663.8 1288.43L1740.45 1232.36L1900.15 1240.88Z" fill="#F2F2F2"></path> <path opacity="0.1" d="M1831.61 1262.02L1589.71 1211.24L1411.98 1250.01L1671.88 1305.41L1831.61 1262.02Z" fill="black"></path> <path d="M1829.2 1254.52L1587.3 1203.75L1409.57 1242.52L1669.47 1297.91L1829.2 1254.52Z" fill="#F2F2F2"></path> <path d="M1387.59 1051.03L1391.91 1073.45L1443.36 1340.69H1467.59L1416.13 1073.45L1411.83 1051.03H1387.59Z" fill="#BFE1FF"></path> <path d="M1271.72 1051.03L1276.04 1073.45L1327.49 1340.69H1351.72L1300.27 1073.45L1295.96 1051.03H1271.72Z" fill="#BFE1FF"></path> <path d="M1242.02 1050.14H1468V1095.67H1242.02V1050.14Z" fill="#2564C2"></path> <path d="M1725.69 1284.38L1578.81 1281.67L1578.65 1290.79L1725.1 1293.48L1755.09 1289.13L1725.69 1284.38Z" fill="black"></path> <path d="M1725.69 1284.37C1724.79 1285.7 1724.26 1287.25 1724.16 1288.85C1724.05 1290.45 1724.38 1292.05 1725.1 1293.48L1742.01 1291.03L1742.08 1287.02L1725.69 1284.37Z" fill="#C69C6D"></path> <path d="M1511.99 1223.6L1513.24 1246.51L1613.04 1263.3L1611.79 1240.52L1511.99 1223.6Z" fill="#CCCCCC"></path> <path d="M1611.82 1240.54L1789.66 1230.82L1790.91 1253.6L1613.06 1263.32L1611.82 1240.54Z" fill="#534741"></path> <path d="M1611.8 1240.52L1789.64 1230.8L1687.72 1213.53L1509.88 1223.24L1611.8 1240.52Z" fill="#998675"></path> <path d="M1509.88 1223.24L1509.97 1224.9L1611.88 1242.17L1611.79 1240.52L1509.88 1223.24Z" fill="#F2F2F2"></path> <path d="M1612.95 1261.58L1511.03 1244.3L1511.13 1246.02L1613.04 1263.3L1612.95 1261.58Z" fill="#F2F2F2"></path> <path d="M1509.88 1223.24L1509.97 1224.9L1611.88 1242.17L1611.79 1240.52L1509.88 1223.24Z" fill="#736357"></path> <path d="M1511.03 1244.3L1511.13 1246.02L1613.04 1263.3L1612.95 1261.58L1511.03 1244.3Z" fill="#736357"></path> <path d="M1512.25 1228.39L1549.58 1234.83L1549.65 1236.18L1512.33 1229.87L1512.25 1228.39Z" fill="#B3B3B3"></path> <path d="M1512.79 1238.19L1539.28 1242.76L1539.36 1244.15L1512.87 1239.67L1512.79 1238.19Z" fill="#B3B3B3"></path> <path d="M1612.08 1245.57L1568.72 1237.91L1568.81 1239.46L1612.16 1247.14L1612.08 1245.57Z" fill="#B3B3B3"></path> <path d="M1612.61 1255.28L1569.26 1247.61L1569.34 1249.17L1612.69 1256.84L1612.61 1255.28Z" fill="#B3B3B3"></path> <path d="M1678.64 1317.03L1584.88 1353.38L1519.02 1339.29L1620.59 1303.04L1678.64 1317.03Z" fill="#4D4D4D"></path> <path d="M1519.02 1339.29V1345.93L1584.88 1360.21V1353.38L1519.02 1339.29Z" fill="#333333"></path> <path d="M1584.88 1360.21L1678.64 1324.48V1317.03L1584.88 1353.38V1360.21Z" fill="#1A1A1A"></path> <path d="M1671.42 1317.03L1584.1 1349.75L1526.87 1338.2L1620.63 1305.16L1671.42 1317.03Z" fill="#BFE1FF"></path> <path d="M1565.11 1345.92L1572.1 1343.29L1551.37 1338.93L1543.49 1341.56L1565.11 1345.92Z" fill="#4D4D4D"></path> <path d="M1890.73 1387.59H0V1393.1H1890.73V1387.59Z" fill="#8AC6FA"></path> <path d="M1374.92 1428.99H933.232V1434.51H1374.92V1428.99Z" fill="#8AC6FA"></path> <path d="M1543.17 1471.03H1266.23V1476.55H1543.17V1471.03Z" fill="#8AC6FA"></path> <path d="M1149.95 1471.03H784.525V1476.55H1149.95V1471.03Z" fill="#8AC6FA"></path> <path d="M1631.7 1429.63H1499.4V1435.14H1631.7V1429.63Z" fill="#8AC6FA"></path> <path d="M863.749 1428.99H595.906V1434.51H863.749V1428.99Z" fill="#8AC6FA"></path> <path d="M987.201 1089.66H375.173V1095.17H987.201V1089.66Z" fill="#0958BF"></path> <path d="M1229.52 1089.65H1070.87V1095.17H1229.52V1089.65Z" fill="#0958BF"></path> <path d="M1042.95 1089.65H1017.49V1095.17H1042.95V1089.65Z" fill="#0958BF"></path> <path d="M1209.08 891.879L1203.56 891.959L1204.81 978.878L1210.33 978.799L1209.08 891.879Z" fill="white"></path> <path d="M1066.22 1235.37L1063.93 1230.34L984.828 1266.39L987.116 1271.41L1066.22 1235.37Z" fill="white"></path> <path d="M1102.09 1219.12L1099.8 1214.1L1075.86 1225.01L1078.15 1230.03L1102.09 1219.12Z" fill="white"></path> <path d="M247.889 1086.9H121.379V1092.41H247.889V1086.9Z" fill="white"></path> <path d="M331.035 1086.9H278.621V1092.41H331.035V1086.9Z" fill="white"></path> <path d="M1527.26 132.414H1521.74V147.89H1527.26V132.414Z" fill="#BFE1FF"></path> <path d="M1527.26 225.269H1521.74V240.745H1527.26V225.269Z" fill="#BFE1FF"></path> <path d="M1499.82 138.272L1495.04 141.03L1502.78 154.433L1507.56 151.674L1499.82 138.272Z" fill="#BFE1FF"></path> <path d="M1546.23 218.698L1541.45 221.456L1549.19 234.859L1553.97 232.1L1546.23 218.698Z" fill="#BFE1FF"></path> <path d="M1479.03 157.128L1476.27 161.906L1489.67 169.644L1492.43 164.866L1479.03 157.128Z" fill="#BFE1FF"></path> <path d="M1559.36 203.502L1556.6 208.28L1570 216.018L1572.76 211.24L1559.36 203.502Z" fill="#BFE1FF"></path> <path d="M1485.82 183.835H1470.34V189.352H1485.82V183.835Z" fill="#BFE1FF"></path> <path d="M1578.68 183.835H1563.2V189.352H1578.68V183.835Z" fill="#BFE1FF"></path> <path d="M1489.66 203.626L1476.26 211.362L1479.02 216.14L1492.42 208.405L1489.66 203.626Z" fill="#BFE1FF"></path> <path d="M1570.06 157.205L1556.66 164.941L1559.42 169.72L1572.82 161.984L1570.06 157.205Z" fill="#BFE1FF"></path> <path d="M1502.83 218.76L1495.09 232.162L1499.87 234.921L1507.61 221.518L1502.83 218.76Z" fill="#BFE1FF"></path> <path d="M1549.09 138.239L1541.36 151.643L1546.14 154.401L1553.87 140.997L1549.09 138.239Z" fill="#BFE1FF"></path> <g opacity="0.8"> <path d="M1334.51 0H1330.29V11.8227H1334.51V0Z" fill="#BFE1FF"></path> <path d="M1334.51 70.9363H1330.29V82.759H1334.51V70.9363Z" fill="#BFE1FF"></path> <path d="M1313.55 4.47484L1309.9 6.58228L1315.82 16.821L1319.47 14.7136L1313.55 4.47484Z" fill="#BFE1FF"></path> <path d="M1349 65.916L1345.35 68.0234L1351.26 78.2622L1354.92 76.1548L1349 65.916Z" fill="#BFE1FF"></path> <path d="M1297.67 18.8801L1295.56 22.5303L1305.8 28.4416L1307.91 24.7914L1297.67 18.8801Z" fill="#BFE1FF"></path> <path d="M1359.04 54.3064L1356.93 57.9566L1367.17 63.8679L1369.28 60.2178L1359.04 54.3064Z" fill="#BFE1FF"></path> <path d="M1302.86 39.282H1291.03V43.4968H1302.86V39.282Z" fill="#BFE1FF"></path> <path d="M1373.79 39.282H1361.97V43.4968H1373.79V39.282Z" fill="#BFE1FF"></path> <path d="M1305.79 54.4015L1295.55 60.311L1297.66 63.9616L1307.9 58.052L1305.79 54.4015Z" fill="#BFE1FF"></path> <path d="M1367.21 18.9391L1356.97 24.8486L1359.08 28.4992L1369.32 22.5896L1367.21 18.9391Z" fill="#BFE1FF"></path> <path d="M1315.85 65.9633L1309.94 76.2021L1313.59 78.3095L1319.5 68.0707L1315.85 65.9633Z" fill="#BFE1FF"></path> <path d="M1351.19 4.44977L1345.28 14.6896L1348.93 16.7964L1354.84 6.55656L1351.19 4.44977Z" fill="#BFE1FF"></path> </g> <path d="M526.896 657.032C524.722 657.031 522.552 656.832 520.413 656.436C517.259 655.849 514.409 654.177 512.358 651.709C510.307 649.241 509.184 646.133 509.184 642.924V640.625H512.491V642.924C512.486 645.36 513.336 647.721 514.892 649.595C516.448 651.468 518.613 652.737 521.009 653.178C524.9 653.906 528.893 653.906 532.784 653.178C535.066 652.749 537.139 651.571 538.677 649.831C540.214 648.091 541.127 645.888 541.271 643.57C541.415 641.253 540.782 638.954 539.473 637.037C538.163 635.119 536.252 633.693 534.041 632.985L518.76 628.122C515.836 627.201 513.305 625.327 511.57 622.8C509.836 620.273 508.996 617.238 509.187 614.179C509.377 611.119 510.586 608.212 512.62 605.919C514.655 603.626 517.398 602.081 520.413 601.528C524.699 600.734 529.094 600.734 533.38 601.528C536.528 602.122 539.371 603.798 541.415 606.265C543.46 608.732 544.578 611.836 544.576 615.04V617.339H541.268V615.04C541.271 612.605 540.42 610.246 538.864 608.373C537.308 606.5 535.145 605.231 532.751 604.786C528.86 604.059 524.867 604.059 520.976 604.786C518.696 605.222 516.627 606.406 515.096 608.149C513.564 609.893 512.657 612.097 512.519 614.414C512.38 616.73 513.018 619.027 514.331 620.941C515.644 622.854 517.557 624.276 519.768 624.98L535.05 629.826C537.969 630.754 540.495 632.63 542.226 635.158C543.957 637.685 544.794 640.719 544.604 643.776C544.414 646.834 543.208 649.74 541.177 652.034C539.147 654.327 536.408 655.877 533.396 656.436C531.252 656.833 529.077 657.032 526.896 657.032Z" fill="#2D85F7"></path> <path d="M528.551 592.531H525.243V602.587H528.551V592.531Z" fill="#2D85F7"></path> <path d="M528.551 655.278H525.243V665.334H528.551V655.278Z" fill="#2D85F7"></path> <path d="M526.897 684.138C515.985 684.138 505.318 680.902 496.245 674.84C487.172 668.777 480.1 660.161 475.924 650.079C471.749 639.998 470.656 628.904 472.785 618.202C474.914 607.5 480.168 597.669 487.884 589.953C495.6 582.237 505.431 576.982 516.133 574.853C526.836 572.724 537.929 573.817 548.011 577.993C558.092 582.169 566.709 589.24 572.771 598.313C578.834 607.387 582.069 618.054 582.069 628.966C582.052 643.593 576.234 657.616 565.891 667.959C555.547 678.302 541.524 684.121 526.897 684.138ZM526.897 577.101C516.639 577.101 506.612 580.143 498.083 585.842C489.553 591.541 482.906 599.641 478.98 609.118C475.055 618.595 474.028 629.023 476.029 639.084C478.03 649.145 482.97 658.386 490.223 665.639C497.477 672.893 506.718 677.833 516.779 679.834C526.839 681.835 537.268 680.808 546.745 676.882C556.222 672.957 564.322 666.309 570.021 657.78C575.72 649.251 578.762 639.223 578.762 628.966C578.753 615.21 573.287 602.02 563.563 592.29C553.84 582.56 540.653 577.085 526.897 577.068V577.101Z" fill="#2D85F7"></path> <path d="M519.066 880.388C519.066 887.082 516.406 893.503 511.673 898.236C506.939 902.97 500.519 905.629 493.824 905.629V884.802C489.439 884.929 485.072 884.175 480.983 882.585C476.894 880.994 473.166 878.6 470.019 875.542C466.872 872.485 464.37 868.828 462.662 864.787C460.953 860.746 460.073 856.403 460.073 852.015C460.073 847.628 460.953 843.285 462.662 839.244C464.37 835.203 466.872 831.546 470.019 828.489C473.166 825.431 476.894 823.037 480.983 821.446C485.072 819.856 489.439 819.102 493.824 819.229V855.091C497.143 855.095 500.428 855.752 503.492 857.025C506.557 858.299 509.34 860.163 511.684 862.512C514.028 864.861 515.886 867.649 517.153 870.716C518.419 873.783 519.069 877.07 519.066 880.388Z" fill="white"></path> <defs> <linearGradient id="paint0_linear" x1="255.075" y1="297.931" x2="1485.52" y2="1623.01" gradientUnits="userSpaceOnUse"> <stop offset="0.0677083" stop-color="#DEE2FC"></stop> <stop offset="0.640625" stop-color="#EAF4FF"></stop> </linearGradient> <linearGradient id="paint1_linear" x1="255.075" y1="264.827" x2="1495.97" y2="1590.64" gradientUnits="userSpaceOnUse"> <stop offset="0.0677083" stop-color="#DEE2FC"></stop> <stop offset="0.640625" stop-color="#EAF4FF"></stop> </linearGradient> <linearGradient id="paint2_linear" x1="255.075" y1="242.758" x2="1485.52" y2="1567.84" gradientUnits="userSpaceOnUse"> <stop offset="0.0677083" stop-color="#DEE2FC"></stop> <stop offset="0.640625" stop-color="#EAF4FF"></stop> </linearGradient> <linearGradient id="paint3_linear" x1="255.075" y1="212.414" x2="1485.52" y2="1537.49" gradientUnits="userSpaceOnUse"> <stop offset="0.0677083" stop-color="#DEE2FC"></stop> <stop offset="0.640625" stop-color="#EAF4FF"></stop> </linearGradient> <linearGradient id="paint4_linear" x1="1061.66" y1="935.66" x2="1061.66" y2="1173.88" gradientUnits="userSpaceOnUse"> <stop></stop> <stop offset="1"></stop> </linearGradient> </defs> </svg> 