<?xml version="1.0" standalone="no"?>
<!DOCTYPE svg PUBLIC "-//W3C//DTD SVG 20010904//EN"
 "http://www.w3.org/TR/2001/REC-SVG-20010904/DTD/svg10.dtd">
<svg version="1.0" xmlns="http://www.w3.org/2000/svg"
 width="640.000000pt" height="640.000000pt" viewBox="0 0 640.000000 640.000000"
 preserveAspectRatio="xMidYMid meet">

<g transform="translate(0.000000,640.000000) scale(0.100000,-0.100000)"
fill="#000000" stroke="none">
<path d="M0 3200 l0 -3200 3200 0 3200 0 0 3200 0 3200 -3200 0 -3200 0 0
-3200z m5190 400 l0 -120 -130 0 -130 0 0 120 0 120 130 0 130 0 0 -120z
m-1172 -155 c86 -21 133 -46 181 -101 44 -51 56 -87 56 -179 0 -80 -27 -147
-76 -188 -58 -50 -125 -69 -266 -75 -204 -8 -314 33 -373 138 -22 39 -25 58
-25 135 0 108 16 148 82 202 88 72 274 102 421 68z m-2182 -210 c130 -287 125
-277 141 -307 l14 -28 -108 0 -108 0 -18 45 -19 45 -139 0 -138 0 -20 -45 -20
-45 -105 0 -105 0 30 68 c17 37 69 153 116 257 47 105 89 198 95 208 8 16 23
17 149 15 l140 -3 95 -210z m546 74 c62 -78 119 -150 127 -160 7 -10 17 -19
22 -19 5 0 9 72 9 160 l0 161 88 -3 87 -3 3 -272 2 -273 -129 0 -129 0 -127
158 c-70 86 -131 159 -136 160 -5 2 -9 -66 -9 -157 l0 -161 -90 0 -90 0 0 275
0 275 129 0 129 0 114 -141z m849 132 c159 -14 207 -46 224 -148 l7 -43 -96 0
c-83 0 -99 3 -116 20 -21 21 -46 23 -200 20 -77 -1 -103 -7 -97 -23 4 -14 51
-22 258 -41 170 -16 218 -30 245 -70 24 -38 27 -123 4 -173 -15 -33 -27 -44
-66 -59 -43 -17 -78 -19 -279 -19 -193 0 -236 3 -267 17 -46 20 -66 51 -74
111 l-7 47 96 0 c58 0 97 -4 99 -11 5 -16 75 -28 159 -29 93 0 139 8 139 25 0
16 -28 22 -135 30 -262 19 -333 44 -355 125 -22 82 15 177 79 202 61 24 233
32 382 19z m1548 -2 c97 -21 148 -76 158 -171 7 -75 -11 -132 -57 -176 l-38
-37 53 -77 53 -77 -105 -3 -104 -3 -46 68 -47 67 -83 0 -83 0 0 -65 0 -65 -90
0 -90 0 0 275 0 275 215 0 c117 0 237 -5 264 -11z m-1891 -690 c0 -56 -3 -79
-11 -76 -13 4 -23 118 -13 143 14 36 24 7 24 -67z m237 71 c-3 -5 -15 -10 -26
-10 -17 0 -19 -7 -19 -70 0 -40 -4 -70 -10 -70 -11 0 -12 11 -10 88 1 50 0 52
-24 52 -14 0 -26 5 -26 10 0 6 27 10 61 10 37 0 58 -4 54 -10z m340 -53 c33
-81 38 -97 26 -97 -5 0 -13 9 -16 20 -9 29 -67 28 -88 -2 -27 -41 -25 -14 5
65 17 43 35 76 40 75 6 -2 21 -30 33 -61z m243 57 c36 -10 25 -21 -20 -20 -36
1 -44 -3 -57 -26 -15 -25 -15 -31 0 -55 13 -24 21 -28 59 -27 38 1 41 0 25
-13 -60 -43 -134 26 -105 97 16 39 53 56 98 44z m235 -66 c15 -40 27 -76 27
-80 0 -16 -19 -7 -25 12 -5 15 -15 20 -40 20 -24 0 -38 -6 -45 -20 -6 -11 -15
-20 -19 -20 -10 0 35 126 52 148 16 21 21 14 50 -60z m237 62 c25 -13 38 -59
29 -96 -10 -35 -43 -54 -94 -54 l-35 0 0 73 c0 41 3 77 7 80 10 10 72 8 93 -3z
m250 0 c0 -5 -3 -9 -7 -9 -5 1 -20 1 -35 0 -23 -1 -28 -6 -28 -26 0 -21 5 -25
30 -25 17 0 30 -4 30 -10 0 -5 -13 -10 -30 -10 -25 0 -30 -4 -30 -25 0 -22 4
-25 35 -25 19 0 35 -4 35 -10 0 -5 -20 -10 -45 -10 l-45 0 0 80 0 80 45 0 c25
0 45 -4 45 -10z m171 -36 c13 -25 27 -47 30 -50 4 -2 20 18 36 46 43 76 47 68
44 -82 -1 -17 -4 -28 -8 -25 -4 4 -6 30 -4 57 1 28 0 50 -3 50 -2 0 -16 -20
-31 -45 -14 -25 -30 -43 -34 -41 -4 3 -16 23 -26 46 -17 38 -38 55 -34 28 4
-30 -2 -101 -7 -95 -5 4 -8 119 -5 152 2 18 23 -2 42 -41z m269 10 l22 -35 25
35 c37 55 47 42 13 -17 -16 -30 -30 -66 -30 -80 0 -15 -4 -27 -10 -27 -5 0
-10 16 -10 36 0 20 -11 54 -26 80 -31 52 -16 60 16 8z"/>
<path d="M5042 3655 c-6 -14 -20 -25 -30 -25 -28 0 -34 -11 -16 -31 10 -12 15
-29 12 -49 -5 -30 13 -43 28 -19 6 11 33 9 65 -5 13 -6 16 -2 11 19 -3 18 2
33 17 49 24 25 19 36 -16 36 -15 0 -27 9 -35 25 -6 14 -14 25 -18 25 -4 0 -12
-11 -18 -25z"/>
<path d="M3825 3311 c-77 -20 -115 -63 -115 -130 0 -63 17 -92 70 -118 95 -48
236 -20 266 54 30 70 2 152 -60 178 -42 18 -123 26 -161 16z"/>
<path d="M1564 3228 c-16 -34 -30 -66 -32 -70 -2 -4 28 -8 67 -8 l70 0 -32 70
c-18 38 -35 69 -38 70 -3 0 -19 -28 -35 -62z"/>
<path d="M4480 3240 l0 -50 123 0 c107 0 126 2 140 18 22 24 21 38 -3 62 -18
18 -33 20 -140 20 l-120 0 0 -50z"/>
<path d="M3421 2771 c-15 -36 -12 -44 17 -39 17 3 18 6 7 37 l-11 34 -13 -32z"/>
<path d="M3891 2770 c-14 -42 -15 -40 15 -40 22 0 24 3 18 23 -14 47 -21 51
-33 17z"/>
<path d="M4103 2750 l1 -60 31 0 c40 0 55 16 55 60 0 44 -15 60 -56 60 l-32 0
1 -60z"/>
</g>
</svg>
